<svg xmlns="http://www.w3.org/2000/svg" viewBox="0 0 120 120" width="120" height="120">
  <defs>
    <linearGradient id="grad" x1="0%" y1="0%" x2="100%" y2="100%">
      <stop offset="0%" style="stop-color:#1c1917;stop-opacity:1" />
      <stop offset="100%" style="stop-color:#44403c;stop-opacity:1" />
    </linearGradient>
  </defs>
  <!-- Outer ring -->
  <circle cx="60" cy="60" r="54" fill="none" stroke="url(#grad)" stroke-width="2"/>
  <!-- Inner ring -->
  <circle cx="60" cy="60" r="46" fill="none" stroke="#e7e5e4" stroke-width="1"/>
  <!-- R letterform -->
  <path d="M 45 38 L 45 78 L 52 78 L 52 68 L 62 68 Q 72 68 72 53 Q 72 42 62 40 L 62 38 Q 75 40 75 53 Q 75 65 62 68 L 52 68 L 52 58 L 60 58 L 60 52 Q 60 48 57 48 L 52 48 L 52 38 Z M 52 42 L 58 42 Q 63 42 63 53 Q 63 60 58 60 L 52 60 Z" fill="url(#grad)"/>
  <!-- Subtle dot accent -->
  <circle cx="85" cy="42" r="3" fill="#78716c"/>
</svg>
